<?xml version="1.0" encoding="utf-8"?>
<!-- Generator: Adobe Illustrator 19.2.1, SVG Export Plug-In . SVG Version: 6.00 Build 0)  -->
<svg version="1.1" xmlns="http://www.w3.org/2000/svg" xmlns:xlink="http://www.w3.org/1999/xlink" x="0px" y="0px" width="210px"
	 height="150px" viewBox="0 0 210 150" style="enable-background:new 0 0 210 150;" xml:space="preserve">
<style type="text/css">
	.st0{fill:none;}
	.st1{fill:#1A374F;}
	.st2{fill:#F3C463;}
	.st3{fill:#F2C363;}
	.st4{fill:none;stroke:#F2C363;stroke-width:0.25;}
	.st5{fill:#F2C363;stroke:#F2C363;stroke-width:0.25;}
	.st6{fill:#F2C363;stroke:#F2C363;stroke-width:0.2557;}
</style>
<g id="Layer_2">
	<rect class="st0" width="210" height="150"/>
	<g>
		<path id="path7798_1_"  class="st1" d="M105.1,0.5c-7.9,21.6-21.7,40.3-39.8,53.9v83.1
			c11.4,7.6,24.9,12,39.6,12c0.1,0,0.1,0,0.1,0h0.1c14.6,0,28.2-4.4,39.6-12V54.4C126.8,40.8,112.9,22.1,105.1,0.5z"/>
		<path id="path7800_1_"  class="st2" d="M105.1,60C94.9,71.2,83,80.9,69.9,88.5v13.2
			c7.7,11,20.4,18.3,35,18.3c14.8,0,27.9-7.6,35.5-19.1V88.5C127.1,80.9,115.2,71.3,105.1,60z M105.1,72.1
			c8.8,8.7,18.7,16.3,29.4,22.7l0,0c-5.9,10.2-17,17-29.6,17C92.3,111.7,81.3,105,75.3,95C86.1,88.5,96.1,80.8,105.1,72.1
			L105.1,72.1z"/>
		<path id="path7802_1_"  class="st2" d="M140.3,107.5c-8.5,10.1-21.3,16.5-35.5,16.5
			c-13.9,0-26.4-6.2-35-15.8v11.5c9.5,7.9,21.7,12.6,35,12.6c13.5,0,25.9-4.9,35.5-13.1C140.3,119.3,140.3,107.5,140.3,107.5z"/>
		<path id="path7804_1_"  class="st2" d="M140.3,123.9c-9.8,7.5-22.1,12-35.5,12
			c-13.1,0-25.2-4.4-35-11.7v10.3c10.2,6.2,22.1,9.9,35,9.9c13,0,25.2-3.7,35.5-10.2V123.9L140.3,123.9z"/>
		<path id="path7806_1_"  class="st2" d="M105.1,14.5C96.7,31.3,84.6,46,69.9,57.4v10.9
			c13.9-9.7,25.9-21.9,35.2-36.1c9.3,14.1,21.2,26.4,35.1,36.1V57.4C125.5,46,113.4,31.3,105.1,14.5z"/>
		<path id="path7808_1_"  class="st2" d="M105.1,39.8C95.5,53,83.5,64.4,69.9,73.4v9.9
			c13.3-8.1,25.2-18.3,35.2-30.1c10,11.8,21.9,22,35.2,30.1v-9.9C126.6,64.4,114.7,53,105.1,39.8z"/>
		<g id="g3682" transform="translate(-3.2080879,-2.38333)">
			<path id="path6670"  class="st3" d="M113.1,88.7c1.1-0.6,0.4-1.6,0.4-1.6c1-0.9-0.1-1.6-0.1-1.6
				c0.6-1.5-0.7-1.6-0.7-1.6c0.2-1.4-1.1-1.4-1.1-1.4c-0.1-1.4-1.4-0.8-1.4-0.8c-0.9-1.4-1.6-0.2-1.6-0.2c-1-1-1.6,0.3-1.6,0.3
				c-1.3-0.6-1.5,0.8-1.5,0.8c-1.6-0.1-1.2,1.4-1.2,1.4c-1.2,0.3-0.6,1.5-0.6,1.5c-1.2,0.9-0.1,1.6-0.1,1.6c-0.9,1,0.4,1.6,0.4,1.6
				c-0.4,1.4,0.9,1.4,0.9,1.4c0,1.6,1.4,1,1.4,1c0.2,1.3,1.6,0.6,1.6,0.6c0.8,1.1,1.7,0,1.7,0c1.2,0.7,1.6-0.6,1.6-0.6
				c1.6,0.1,1.3-1.1,1.3-1.1C113.5,90,113.1,88.7,113.1,88.7"/>
			<path id="path6672"  class="st4" d="M95.6,104.1L95.6,104.1L95.6,104.1z M102.9,106.6
				C102.9,106.6,103,106.6,102.9,106.6"/>
			<path id="path6674"  class="st3" d="M96.2,102.3c0.1,0,0.3-0.1,0.3-0.3s-0.1-0.3-0.3-0.3
				c-0.1,0-0.3,0.1-0.3,0.3C95.8,102.2,95.9,102.3,96.2,102.3L96.2,102.3z"/>
			<path id="path6676"  class="st3" d="M94.7,101.9c0.1,0,0.2-0.1,0.2-0.2s-0.1-0.2-0.2-0.2
				s-0.2,0.1-0.2,0.2C94.5,101.8,94.6,101.9,94.7,101.9L94.7,101.9z"/>
			<path id="path6678"  class="st3" d="M96.2,103.2c0.1,0,0.3-0.1,0.3-0.3c0-0.1-0.1-0.3-0.3-0.3
				c-0.1,0-0.3,0.1-0.3,0.3C95.9,103,96.1,103.2,96.2,103.2L96.2,103.2z"/>
			<path id="path6680"  class="st3" d="M94.9,104.3c0.1,0,0.2-0.1,0.2-0.2s-0.1-0.2-0.2-0.2
				c-0.1,0-0.2,0.1-0.2,0.2C94.6,104.2,94.7,104.3,94.9,104.3L94.9,104.3z"/>
			<path id="path6682"  class="st3" d="M95.7,104.3c0.1,0,0.2-0.1,0.2-0.2s-0.1-0.2-0.2-0.2
				s-0.2,0.1-0.2,0.2C95.5,104.2,95.6,104.3,95.7,104.3L95.7,104.3z"/>
			<path id="path6684"  class="st4" d="M95.7,104.3c0.1,0,0.2-0.1,0.2-0.2s-0.1-0.2-0.2-0.2
				s-0.2,0.1-0.2,0.2C95.5,104.2,95.6,104.3,95.7,104.3L95.7,104.3z"/>
			<path id="path6686"  class="st3" d="M97.3,104.4c0.1,0,0.3-0.1,0.3-0.3c0-0.1-0.1-0.3-0.3-0.3
				c-0.2,0-0.3,0.1-0.3,0.3C96.9,104.3,97.1,104.4,97.3,104.4L97.3,104.4z"/>
			<path id="path6688"  class="st4" d="M97.7,104.8c0.2,0,0.4-0.1,0.4-0.4c0-0.2-0.1-0.4-0.4-0.4
				c-0.2,0-0.4,0.1-0.4,0.4C97.4,104.7,97.6,104.8,97.7,104.8L97.7,104.8z"/>
			<path id="path6690"  class="st3" d="M98.4,105.1c0.2,0,0.4-0.1,0.4-0.4c0-0.2-0.1-0.4-0.4-0.4
				c-0.2,0-0.4,0.1-0.4,0.4C98,105,98.2,105.1,98.4,105.1L98.4,105.1z"/>
			<path id="path6692"  class="st3" d="M97.4,105.3c0.1,0,0.3-0.1,0.3-0.3s-0.1-0.3-0.3-0.3
				c-0.2,0-0.3,0.1-0.3,0.3C97.2,105.3,97.3,105.3,97.4,105.3L97.4,105.3z"/>
			<path id="path6694"  class="st4" d="M105.1,95.1L105.1,95.1 M112.5,93.8L112.5,93.8 M116.9,86.6
				L116.9,86.6 M116.1,100.4C116.1,100.4,116,100.4,116.1,100.4 M111.9,102.2L111.9,102.2"/>
			<polygon id="polygon6696" class="st3" points="118.4,101.5 118.4,101.5 117.9,102.3 118.6,102.5 			"/>
			<polygon id="polygon6698" class="st3" points="121.7,98.8 121.7,98.8 120.9,99.5 121.5,99.7 			"/>
			<polygon id="polygon6700" class="st3" points="122.4,99.3 122.4,99.3 121.7,100 122.2,100.2 			"/>
			<polygon id="polygon6702" class="st3" points="119.3,100.7 119.3,100.7 118.7,101.5 119.3,101.6 			"/>
			<polygon id="polygon6704" class="st3" points="120.9,103.8 120.9,103.8 119.9,104 120.4,104.5 			"/>
			<polygon id="polygon6706" class="st3" points="121.7,102.9 121.7,102.9 120.7,103.3 121.1,103.8 			"/>
			<polygon id="polygon6708" class="st3" points="122.6,101.3 122.6,101.3 121.7,101.8 122.2,102.2 			"/>
			<polygon id="polygon6710" class="st3" points="122.5,100.5 122.5,100.5 121.7,101 122.2,101.5 			"/>
			<polygon id="polygon6712" class="st3" points="120.2,99.7 120.2,99.7 119.5,100.5 120.1,100.7 			"/>
			<polygon id="polygon6714" class="st3" points="120.4,100.5 120.4,100.5 119.6,101.2 120.2,101.5 			"/>
			<polygon id="polygon6716" class="st3" points="121.3,100.3 121.3,100.3 120.5,101 121.1,101.2 			"/>
			<polygon id="polygon6718" class="st3" points="120.6,101.8 120.6,101.8 119.8,102.4 120.3,102.8 			"/>
			<polygon id="polygon6720" class="st3" points="121.4,101.8 121.4,101.8 120.6,102.3 121.1,102.8 			"/>
			<path id="path6722"  class="st4" d="M118.2,102.4l-0.5,2.8 M119,101.5l-1.2,3.7 M119.8,100.7
				l-1.9,4.7 M120,102.5l-1.9,2.9 M120.1,104.2l-1.8,1.4 M120.9,103.5l-0.4,0.4 M120.2,104.3l-1.8,1.4 M121.9,102l-3.7,3.7
				 M120.8,102.5l-2.6,3 M121.9,101.2l-0.6,0.7 M120.8,101.1l-0.6,1 M119.9,102.5l-1.9,2.9 M121.2,99.6l-0.9,1.7 M120.2,101.5
				l-2.2,3.9 M119.9,101.4l-2,4 M121.9,100.1l-1.5,2.1 M120.2,102.7l-2.1,2.9 M120.7,102.5l-2.6,3.1 M115.4,109.2H115l0.6-0.9
				l0.4-0.1v0.4"/>
			<polygon id="polygon6724" class="st3" points="115.1,108.1 115,108.5 114.3,109.3 114.3,108.9 113.9,108.8 114.6,108.1 			"/>
			<polygon id="polygon6726" class="st3" points="116.6,108.6 116.6,109.1 116.2,110.1 116.1,109.7 115.7,109.8 116.1,108.8 			"/>
			<polygon id="polygon6728" class="st3" points="115.4,108 115.1,108.1 114.3,109 114.7,108.9 114.8,109.3 115.4,108.5 			"/>
			<polygon id="polygon6730" class="st3" points="117,108.7 117.1,109.1 116.9,110.2 116.7,109.8 116.4,110 116.6,109 			"/>
			<path id="path6732"  class="st4" d="M116,108.1l0.6-0.9 M115.6,108.3l0.9-1.1 M115.1,108.1
				l1.3-1.1 M115.1,107.6l1.4-0.9 M116,108.6l0.7-1.1 M116.6,108.6l0.4-1 M117,108.7l0.2-1 M105.4,108.7L105.4,108.7 M107,109.8
				L107,109.8 M108.7,110.5L108.7,110.5 M99.4,104.9L99.4,104.9"/>
			<path id="path6734"  class="st3" d="M95.9,104.2l-0.4-0.1c-0.4,0-0.8,0.1-1.1,0.5
				c0,0,0.4,0.4,0.9,0.4c-0.2,0.2-0.4,0.4-0.6,0.8c0,0,1.2,0.4,2.4-0.8l0,0l0.1-0.2c-0.3-0.3-0.6-0.2-0.6-0.2S96.3,104.3,95.9,104.2
				L95.9,104.2L95.9,104.2z"/>
			<path id="path6736"  class="st5" d="M97.7,105.3l-0.4-0.1c0,0-1.5,0.1-1.5,1.9
				c0,0,0.5-0.1,0.9-0.4c0,0-0.1,1.1,0,1.2C96.7,108,98,107.2,97.7,105.3L97.7,105.3L97.7,105.3z"/>
			<polygon id="polygon6738" class="st6" points="114.9,109.2 115.5,108.3 116,108.1 116,108.6 116,108.6 116.1,108.6 116.1,109.1 
				115.6,110 115.4,109.6 115.1,109.6 115.4,109.2 			"/>
			<polygon id="polygon6740" class="st6" points="113.9,108.7 113.9,108.7 114.1,108.3 113.7,108.2 114.6,107.6 115.1,107.6 
				114.8,108.1 114.7,108.1 			"/>
			<path id="path6742"  class="st3" d="M106,93.3v0.3c-0.1,0,0.1,1,0.1,1c-0.1,0.3-0.8,0.4-0.9,0.4
				c-0.4,0.1-0.4-0.5-0.4-0.5c0-0.4-0.6-0.8-0.6-0.8c-0.1-0.3-0.1-0.4,0-0.4c0,0,0.7-0.3,0.6-0.5c-0.9-1.3-3.2-2.6-5-2.8
				c-0.1,0-0.1-0.2-0.1-0.2s-0.1-0.6-0.1-0.9c0-0.1-0.6-0.4-0.7-0.6c-0.1-0.1-0.1-0.1-0.1-0.4c0-0.1,0.1-0.5,0.1-0.6
				s0.4-1.1,0.4-1.1c0-0.1,0.1-0.3,0.1-0.4c0.1-0.1,0.4-0.1,0.4-0.1c0.1,0.1,0.2,0.2,0.2,0.4v0.1l-0.2,0.9c0.5,0.3,1.4,0.8,1.5,0.9
				s0.1,0.1,0.1,0.1l-0.1,0.9c2.7,0.7,4.4,2.7,4.7,3.4c0,0-0.6,0.8-0.9,0.8c0,0-0.1,0.2-0.3,0.2c0.6,0.5,0.7,1.4,0.7,1.4
				s0.1-0.1,0.1-1C105.6,93.9,105.6,93.4,106,93.3L106,93.3L106,93.3z"/>
			<path id="path6744"  class="st3" d="M106.7,96.4c-0.2-0.8,0.1-1.8,0.1-1.8
				c0.1-0.3,0.1-1.1,0.1-1.1l0.6,0.1c0,0,0,0.6-0.1,0.7c0,0-0.3,0.7-0.2,1.3L106.7,96.4L106.7,96.4L106.7,96.4z"/>
			<path id="path6746"  class="st3" d="M105.8,97.8L105.8,97.8c-0.2-0.3,1.5-2.1,1.5-2.1
				c0.6-0.3,0.6-1.4,0.6-1.4c-0.1,0-0.4-0.3-0.4-0.3l-0.6-0.2c-0.1-0.1-0.4-0.1-0.6-0.1c-0.1,0.1-0.1,0.3-0.1,0.3s-0.5-1.1,0.5-1.1
				c1-0.1,0.7,0,0.9-0.1c0.2-0.1,0-0.4,0.7-0.3c0.7,0.1,1.6,0.4,2.1,0.8c0.4,0.3-0.1,0.2-0.1,0.2s0.1,0.3-0.1,1.2
				c-0.1,0.8,0.1,1.1,0.1,1.2c0,0,0.9,1.9,0.7,2h0.4v0.6c2.8-0.2,2.7-2.7,1.5-3.6c0,0-0.2-0.6,0-0.9c0.2-0.3,3.8-4.9,8.3-5.4
				c0,0-0.1,0.3-0.3,0.5c0,0-0.9,0.5-1.9,1.1c0,0,0.8-0.4,1,0c0.1,0.4-0.6,0.9-1.6,1.4l0,0c0.4-0.1,0.8,0.1,0.8,0.1
				c0.1,0.3-0.5,0.6-1.3,1c0.4,0,0.6,0.4,0.6,0.4c0.1,0.1-0.1,0.4-0.5,0.5c0.3-0.1,0.7,0.4,0.7,0.4c0.1,0.1-0.3,0.6-0.3,0.6
				s-0.1,0-0.1,0.1c0.2,0.1,0.4,0.3,0.4,0.4s-0.1,0.2-0.4,0.4c0,0-0.1,0-0.2,0.1l0,0c0.2,0,0.4,0.5,0.4,0.5s0,0.1-0.4,0.3
				c0.2,0.1,0,0.1-0.1,0.1h0.1c0.4,0,0.5,0.5,0.5,0.5c0,0.2-0.5,0.4-0.5,0.4c-0.1,0-0.1,0-0.2,0l0,0c0.4,0.1,0.4,0.6,0.4,0.6
				c-0.3,0.4-0.7,0.3-0.7,0.3c-0.1,0-0.1,0-0.2,0c0.4,0.3,0.5,0.6,0.5,0.6c-0.3,0.3-0.6,0.2-0.6,0.2c-0.1,0-0.1,0-0.1-0.1
				c0.3,0.1,0.3,0.7,0.3,0.7c-0.2,0.1-0.6,0.1-0.6,0.1s-0.1,0-0.1-0.1c0.2,0.1,0.1,0.7,0.1,0.7c-0.4,0.1-0.6,0-0.6,0l0,0
				c0.1,0.3,0,0.7,0,0.7c-0.1,0-0.6-0.1-0.6-0.1c-0.1,0-0.1-0.1-0.1-0.1c0.1,0.1,0.1,0.7,0.1,0.7s-0.6,0-0.8-0.1c0,0-0.1,0-0.1-0.1
				c0.2,0.2,0.1,0.6,0.1,0.6c-0.2,0.1-0.6,0-0.6,0c-0.1-0.1-0.2-0.1-0.4-0.4c0.1,0.9-0.3,0.9-0.3,0.9c-0.1,0-0.4-0.2-0.4-0.2
				c-0.1-0.1-0.1-0.1-0.2-0.3c0.1,0.4-0.1,0.7-0.1,0.7l-0.2-0.1c-0.2-0.1-0.4-0.3-0.4-0.5c0,0.1-0.1,0.7-0.3,0.7v0.2
				c0,0,1.1,0,1.4,0.6c0,0,0.9,0.3,1,0.9c0,0,0.6,0.2,0.6,0.6h-0.1c0.1,0.1,0.3,0.2,0.4,0.4h1.3c-0.6-0.7,0.7-1.3,1.1-0.6
				c0.1,0.1,0.1,0,0.3,0.1c0.1,0.1,0.9,0.5,0.9,0.8s-0.1,0.6-0.4,0.5c-0.1,0-0.3-0.1-0.3-0.1s0.1,0.1,0.3,0.3
				c0.1,0.2-0.2,0.5-0.4,0.5H118c0,0,0.1,0.6-0.5,0.5s-0.7-0.7-0.7-0.7l-0.1-0.2c0,0-0.1-0.1-0.1-0.3h-1.4v0.1c0,0-0.1,0.1-0.4,0.1
				l0,0c-0.2,0.3-1.1,0-1.1,0c-0.3,0.1-0.7,0.1-1.3-0.2h0.1c0,0-0.9,0-1.6-0.8l-0.1-0.1h-0.9c0.1,0.1,0.4,0.3,0.4,0.4
				c0,0,0.1,0.1,0.1,0.4c0,0.1,0,0.1-0.1,0.2c2.1,1.9,2,2.8,2,2.8c-0.5,0.1-1.2-0.7-1.2-0.7l0,0c0.3,0.8,0.4,1.6,0.4,1.8
				c0,0.4-0.9-0.7-0.9-0.9c0.1,0.9,0.1,1.6,0.1,1.6c-0.4-0.2-0.9-1.1-0.9-1.1c0.1,1.1-0.1,1.9-0.1,1.9c-0.4-0.1-0.6-1.1-0.7-1.2
				c-0.1,1.3-0.5,1.6-0.5,1.6c-0.4-0.3-0.5-0.9-0.5-1.6c0,0.4-0.5,1.3-0.5,1.3c-0.3-0.4-0.3-1.2-0.1-2c-0.2,0.6-0.9,1.3-0.9,1.3
				c-0.1-0.6,0-1.4,0.2-2c-0.5,0.7-1.1,1.1-1.1,1.1c-0.1-0.5,0-1.1,0.3-1.6c-0.4,0.5-1,0.6-1,0.6c0.1-1.1,2-2.8,2.1-2.9
				c-0.1,0-0.1-0.1-0.1-0.1c0.1-0.2,0.1-0.4,0.1-0.4c0.1-0.1,0.3-0.4,0.4-0.4h-0.9c-0.6,0.8-1.6,0.9-1.6,0.9h0.1
				c-0.8,0.4-1.3,0.3-1.4,0.2c-0.4,0.3-1,0.1-1,0.1v-0.1c-0.2,0.1-0.4-0.1-0.4-0.1c0-0.1,0-0.1,0.1-0.1l0,0h-1.4l0,0
				c0,0.1,0,0.2-0.1,0.3l0.1,0.1c1.1,1.4,1.1,3.3,1.1,3.3c-0.6,0.1-0.9-0.6-0.9-0.6c0.1-1.4-0.6-2.3-0.6-2.3l0,0
				c-0.1,0.2-0.4,0.4-0.4,0.4c-0.1,0.1-0.1,0.1-0.4,0.1c-0.3-0.1-0.2-0.5-0.2-0.5c-0.2,0-0.1,0.1-0.4-0.1c-0.2-0.1-0.1-0.6-0.1-0.6
				h0.1c-0.7,0.1-0.5-0.5-0.5-0.5c0.1-0.3,0.3-0.4,0.4-0.6l0,0c0.1-0.2-0.6-0.3-0.6-0.3l-0.9-0.6c0,0-0.1-0.1-0.2-0.3
				c-0.3-0.6-0.9-0.6-0.9-0.6c-1.2,0.5-2.2-0.6-2.2-0.6c0.3-0.2,0.5-0.3,0.7-0.3c-0.6-0.1-1.1-0.9-1.1-0.9c0.6-0.1,0.9-0.1,1.2-0.1
				l0.4,0.1c0.6,0.3,0.9,0.9,0.9,0.9l0.1,0.1c-0.4,0.1-0.4,0.1-0.4,0.1c0.4,0.2,0.6,0.6,0.6,0.6s0-0.1,0.4,0.1l0,0
				c-0.4-0.8-1-1.9-1.1-2c-0.1-0.1-0.1-0.4-0.1-0.6h-0.1c-1.6,0.1-1.9-1.9-1.9-1.9c0.7,0.1,1.2,0.4,1.5,0.8c-0.7-1.1,0-2.7,0-2.7
				s0.6,0.8,0.6,1.5v0.8c0.1-0.4,0.4-0.9,0.9-1.2c0,0,0.2,0.9-0.2,1.8l0.1,0.1c0.1-0.1,0.2-0.1,0.4-0.3c0,0-0.1,2.1-1,2.4l0,0
				c0.1,0.2,0.3,0.4,0.5,0.7l0.3,0.5c0.3,0.5,0.6,1,0.6,1.1c0,0-1.2-2.1,0.4-3.2c0,0,0.4,2.1-0.3,2.8l0.5,0.2c0,0-0.4-1.4,1-2.5
				c0,0,0.1,1,0.1,1.4c0.3-0.4,0.6-0.6,1.2-0.6c0,0-0.3,1.6-1.5,2.1l-0.3,0.4c0,0,0.5,0.3,0.5,0.4c0.2-0.1,0.4-0.1,0.4-0.1
				c0.1-0.3,0.3-0.3,0.4-0.4c0.8-0.6,1.2,0.3,0.9,0.8h0.1h1.4c0.1-0.2,0.2-0.3,0.4-0.4v-0.1c0-0.4,0.6-0.6,0.6-0.6
				c0.1-0.6,1-0.9,1-0.9c0.2-0.6,1.4-0.6,1.4-0.6h0.1v-0.4c-0.3,0-0.3-0.7-0.3-0.7c-0.1,0.2-0.3,0.4-0.4,0.5l-0.2,0.1
				c0,0-0.3-0.4-0.1-0.7c-0.1,0.1-0.1,0.2-0.2,0.3c0,0-0.2,0.2-0.4,0.2c0,0-0.4,0-0.3-0.9c-0.1,0.2-0.3,0.4-0.4,0.4
				c0,0-0.4,0.1-0.6,0c0,0-0.1-0.4,0.1-0.6c-0.1,0.1-0.1,0.1-0.1,0.1c-0.1,0.1-0.8,0.1-0.8,0.1s-0.1-0.6,0.1-0.7
				c-0.1,0.1-0.1,0.1-0.2,0.1c0,0-0.5,0.1-0.6,0.1c0,0-0.1-0.5,0.1-0.7c0,0,0,0-0.1,0c0,0-0.2,0.1-0.6,0c0,0-0.1-0.6,0.1-0.7
				c-0.1,0.1-0.1,0.1-0.1,0.1s-0.4,0.1-0.6-0.1c0,0-0.1-0.5,0.3-0.7c-0.1,0-0.1,0-0.1,0.1c0,0-0.4,0.1-0.6-0.2c0,0,0-0.4,0.5-0.6
				c-0.1,0-0.1,0-0.2,0c0,0-0.4,0.1-0.7-0.3c0,0,0.1-0.4,0.4-0.6c-0.1,0-0.1,0-0.2,0c0,0-0.5-0.1-0.5-0.4c0,0,0.1-0.5,0.5-0.5
				c-0.1,0-0.3,0-0.3-0.1c-0.3-0.1-0.4-0.3-0.4-0.3s0.2-0.4,0.4-0.5c-0.1,0-0.1-0.1-0.1-0.1c-0.2-0.1-0.4-0.2-0.4-0.4
				c0-0.1,0.2-0.4,0.4-0.4c-0.1,0-0.1,0-0.1-0.1c0,0-0.4-0.5-0.3-0.6c0,0,0.4-0.5,0.7-0.4c-0.4-0.1-0.6-0.4-0.5-0.5
				c0,0,0.2-0.4,0.6-0.4c-0.8-0.4-1.4-0.7-1.3-1c0,0,0.4-0.2,0.8-0.1c-1-0.6-1.7-1.1-1.5-1.4c0.2-0.4,1,0,1,0
				c-1.1-0.6-1.9-1.1-1.9-1.1c-0.2-0.2-0.3-0.5-0.3-0.5c4.4,0.6,8,5.2,8.3,5.4c0.2,0.3,0,0.9,0,0.9c-1.1,0.9-1.4,3.4,1.5,3.6v-0.4
				L105.8,97.8L105.8,97.8L105.8,97.8z"/>
			<path id="path6748"  class="st3" d="M110.3,94.7v0.5l0.6,1.4c0.1,0.2,0.7-0.1,0.7-0.1
				c0-1.1,1-1.7,1-1.7v-1.1c0.1-0.6-0.3-0.4-0.3-0.4v0.1c0,0-0.6-0.1-0.5-0.3l0,0c1.9-2.8,5.2-3,5.2-3c0.1-0.1,0.1-0.6,0.1-0.9
				c0,0,0.8-0.6,0.9-0.6c0.1-0.1,0.2-0.4,0.2-0.4s-0.1-0.4-0.2-0.5s-0.2-0.6-0.2-0.8c0-0.1,0-0.2-0.1-0.4c0,0-0.3-0.5-0.7-0.1
				c0,0-0.1,0.2-0.1,0.4c0,0.1,0.1,0.7,0.2,0.7c-0.2,0.1-0.4,0.2-0.4,0.2c-0.8,0.4-1.2,0.8-1.2,0.8v0c0,0,0.2,0.4,0.2,0.6
				c-2.9,0.7-4.9,3.4-4.9,3.4c-0.2,0.2,1.1,0.9,1.1,0.9h-0.1c0,0,0.3,0.1,0.5,0c0,0,0.3,0.1,0.3,0.3v0.1c-1,0.6-1.3,1.4-1.4,1.9
				C111.1,95.8,110.6,95.1,110.3,94.7L110.3,94.7L110.3,94.7z"/>
		</g>
		<polygon id="polygon7354" class="st2" points="83.2,96.8 80.1,94.6 83.9,94.6 85.1,90.9 85.1,90.9 86.4,94.6 90.2,94.6 87.1,96.8 
			88.3,100.6 85.1,98.3 82,100.6 		"/>
		<polygon id="polygon7356" class="st2" points="126.9,96.8 130.1,94.6 126.2,94.6 125,90.9 125,90.9 123.8,94.6 119.9,94.6 
			123,96.8 121.8,100.6 125,98.3 128.1,100.6 		"/>
	</g>
</g>
<g id="Layer_1">
</g>
</svg>
